<svg width="48" height="48" viewBox="0 0 48 48" fill="none" xmlns="http://www.w3.org/2000/svg">
<path d="M26.3066 20.68C27.3865 18.6947 28 16.419 28 14C28 12.5056 27.7659 11.0659 27.3323 9.71554L23.1236 13.9242C22.137 14.9108 22.137 16.5104 23.1236 17.497L26.3066 20.68Z" fill="#9105C6"/>
<path d="M23.0074 24.718C20.5728 26.7662 17.4305 28 14 28C6.26803 28 1.73152e-05 21.732 1.73152e-05 14L0 0L14 7.7188e-06C18.3136 7.7188e-06 22.1715 1.95085 24.7397 5.01838C24.6291 5.09771 24.5236 5.18704 24.4243 5.28637L20.2523 9.45831C16.7993 12.9114 16.7993 18.5099 20.2523 21.9629L23.0074 24.718Z" fill="#9105C6"/>
<path d="M21.6934 40.68C20.6135 38.6947 20 36.419 20 34C20 32.5056 20.2341 31.0659 20.6678 29.7155L24.8765 33.9242C25.8631 34.9108 25.8631 36.5104 24.8765 37.497L21.6934 40.68Z" fill="#F0E224"/>
<path d="M24.9926 44.718C27.4272 46.7662 30.5695 48 34 48C41.732 48 48 41.732 48 34L48 20L34 20C29.6864 20 25.8285 21.9508 23.2604 25.0184C23.3709 25.0977 23.4764 25.187 23.5758 25.2864L27.7477 29.4583C31.2008 32.9114 31.2008 38.5099 27.7477 41.9629L24.9926 44.718Z" fill="#F0E224"/>
</svg>
