<svg width="36" height="36" viewBox="0 0 36 36" fill="none" xmlns="http://www.w3.org/2000/svg">
<path d="M19.1533 16.34C19.6933 15.3474 20 14.2095 20 13C20 12.2528 19.8829 11.5329 19.6661 10.8578L17.5618 12.9621C17.0685 13.4554 17.0685 14.2552 17.5618 14.7485L19.1533 16.34Z" fill="white"/>
<path d="M17.5037 18.359C16.2864 19.3831 14.7153 20 13 20C9.13402 20 6.00001 16.866 6.00001 13L6 6L13 6C15.1568 6 17.0858 6.97542 18.3698 8.50919C18.3146 8.54885 18.2618 8.59352 18.2121 8.64319L16.1262 10.7292C14.3996 12.4557 14.3996 15.2549 16.1262 16.9815L17.5037 18.359Z" fill="white"/>
<path d="M16.8467 26.34C16.3068 25.3474 16 24.2095 16 23C16 22.2528 16.1171 21.5329 16.3339 20.8578L18.4382 22.9621C18.9315 23.4554 18.9315 24.2552 18.4382 24.7485L16.8467 26.34Z" fill="#F0E224"/>
<path d="M18.4963 28.359C19.7136 29.3831 21.2847 30 23 30C26.866 30 30 26.866 30 23L30 16L23 16C20.8432 16 18.9143 16.9754 17.6302 18.5092C17.6854 18.5489 17.7382 18.5935 17.7879 18.6432L19.8739 20.7292C21.6004 22.4557 21.6004 25.2549 19.8739 26.9815L18.4963 28.359Z" fill="#F0E224"/>
</svg>
