<svg width="140" height="112" viewBox="0 0 140 112" fill="none" xmlns="http://www.w3.org/2000/svg">
<path d="M72.5944 33.68C73.6744 31.6947 74.2879 29.419 74.2879 27C74.2879 25.5056 74.0537 24.0659 73.6201 22.7155L69.4114 26.9242C68.4248 27.9108 68.4248 29.5104 69.4114 30.497L72.5944 33.68Z" fill="white"/>
<path d="M69.2952 37.718C66.8607 39.7662 63.7184 41 60.2879 41C52.5559 41 46.2879 34.732 46.2879 27L46.2878 13L60.2879 13C64.6014 13 68.4594 14.9508 71.0275 18.0184C70.917 18.0977 70.8114 18.187 70.7121 18.2864L66.5402 22.4583C63.0871 25.9114 63.0871 31.5099 66.5402 34.9629L69.2952 37.718Z" fill="white"/>
<path d="M67.9813 53.68C66.9014 51.6947 66.2878 49.419 66.2878 47C66.2878 45.5056 66.522 44.0659 66.9556 42.7155L71.1643 46.9242C72.1509 47.9108 72.1509 49.5104 71.1643 50.497L67.9813 53.68Z" fill="#F0E224"/>
<path d="M71.2805 57.718C73.715 59.7662 76.8573 61 80.2878 61C88.0198 61 94.2878 54.732 94.2878 47L94.2879 33L80.2878 33C75.9743 33 72.1163 34.9508 69.5482 38.0184C69.6587 38.0977 69.7643 38.187 69.8636 38.2864L74.0355 42.4583C77.4886 45.9114 77.4886 51.5099 74.0355 54.9629L71.2805 57.718Z" fill="#F0E224"/>
<path d="M21.56 98.12C19.2667 98.12 17.4667 97.5733 16.16 96.48C14.8533 95.36 14.1333 93.7867 14 91.76H19.12C19.3067 93.2 20.1333 93.92 21.6 93.92C22.32 93.92 22.8933 93.7733 23.32 93.48C23.7467 93.16 23.96 92.6933 23.96 92.08C23.96 91.4667 23.7067 91.0133 23.2 90.72C22.72 90.4267 21.9867 90.1867 21 90C19.1867 89.7067 17.6133 89.0933 16.28 88.16C14.9733 87.2 14.32 85.8 14.32 83.96C14.32 82.12 14.96 80.6933 16.24 79.68C17.5467 78.64 19.32 78.12 21.56 78.12C23.72 78.12 25.4133 78.64 26.64 79.68C27.8667 80.72 28.5333 82.2133 28.64 84.16H23.92C23.7333 82.9067 22.9733 82.28 21.64 82.28C20.9733 82.28 20.4533 82.4267 20.08 82.72C19.7067 83.0133 19.52 83.4267 19.52 83.96C19.52 84.5733 19.7467 85.0267 20.2 85.32C20.68 85.5867 21.4133 85.8 22.4 85.96C24.3733 86.3067 26 86.92 27.28 87.8C28.56 88.68 29.2 90.0933 29.2 92.04C29.2 93.9333 28.5067 95.4267 27.12 96.52C25.76 97.5867 23.9067 98.12 21.56 98.12Z" fill="white"/>
<path d="M44.7075 97.32C43.2408 97.8 41.8008 98.04 40.3875 98.04C38.0142 98.04 36.2675 97.4133 35.1475 96.16C34.0542 94.88 33.5075 92.9467 33.5075 90.36V82.76L30.5475 82.44V78.48H33.5875L34.1475 73H38.7875V78.48H43.9475V82.84H38.7875V90.2C38.7875 91.48 38.9742 92.3467 39.3475 92.8C39.7475 93.2533 40.5075 93.48 41.6275 93.48C42.4008 93.48 43.1608 93.36 43.9075 93.12L44.7075 97.32Z" fill="white"/>
<path d="M63.9419 91.48C63.9419 92.36 64.0752 92.96 64.3419 93.28C64.6085 93.6 65.1152 93.7067 65.8619 93.6V97.76C65.1419 97.8933 64.4885 97.96 63.9019 97.96C62.8085 97.96 61.8619 97.76 61.0619 97.36C60.2885 96.9333 59.7552 96.2533 59.4619 95.32C58.3419 97.1867 56.5952 98.12 54.2219 98.12C51.8752 98.12 50.0085 97.2533 48.6219 95.52C47.2352 93.76 46.5419 91.3733 46.5419 88.36C46.5419 86.1467 46.9685 84.28 47.8219 82.76C48.6752 81.2133 49.8485 80.0533 51.3419 79.28C52.8352 78.5067 54.5419 78.12 56.4619 78.12C58.9685 78.12 61.4619 78.6267 63.9419 79.64V91.48ZM55.3019 93.64C56.3952 93.64 57.2219 93.1733 57.7819 92.24C58.3685 91.3067 58.6619 89.9733 58.6619 88.24V82.96C57.8885 82.72 57.1285 82.6 56.3819 82.6C54.9419 82.6 53.8352 83.08 53.0619 84.04C52.2885 85 51.9019 86.44 51.9019 88.36C51.9019 90.04 52.1952 91.3467 52.7819 92.28C53.3952 93.1867 54.2352 93.64 55.3019 93.64Z" fill="white"/>
<path d="M86.6188 91.8C86.6188 92.5733 86.7654 93.1067 87.0588 93.4C87.3521 93.6667 87.8454 93.76 88.5387 93.68V97.76C87.9788 97.8667 87.3521 97.92 86.6588 97.92C84.9788 97.92 83.6721 97.4533 82.7388 96.52C81.8054 95.56 81.3388 94.1467 81.3388 92.28V85.92C81.3388 84.8533 81.1121 84.04 80.6588 83.48C80.2054 82.8933 79.5521 82.6 78.6988 82.6C77.7921 82.6 77.0588 82.9733 76.4987 83.72C75.9654 84.4667 75.6987 85.48 75.6987 86.76V97.76H70.4188V84.64C70.4188 83.84 70.2588 83.3067 69.9388 83.04C69.6188 82.7733 69.0854 82.68 68.3387 82.76V78.48C69.0588 78.32 69.7388 78.24 70.3787 78.24C71.4454 78.24 72.3521 78.4667 73.0988 78.92C73.8721 79.3467 74.4188 79.9867 74.7388 80.84C75.4054 79.9067 76.2188 79.2267 77.1787 78.8C78.1654 78.3467 79.2054 78.12 80.2988 78.12C82.2454 78.12 83.7787 78.7733 84.8988 80.08C86.0454 81.36 86.6188 83.1467 86.6188 85.44V91.8Z" fill="white"/>
<path d="M99.5597 98.12C97.773 98.12 96.213 97.7067 94.8797 96.88C93.5463 96.0533 92.5197 94.88 91.7997 93.36C91.0797 91.84 90.7197 90.08 90.7197 88.08C90.7197 86.0267 91.0797 84.2533 91.7997 82.76C92.5464 81.24 93.5863 80.0933 94.9197 79.32C96.2797 78.52 97.8397 78.12 99.5997 78.12C101.893 78.12 103.76 78.7867 105.2 80.12C106.64 81.4267 107.493 83.2267 107.76 85.52H102.92C102.733 84.6133 102.346 83.9067 101.76 83.4C101.2 82.8667 100.466 82.6 99.5597 82.6C98.413 82.6 97.5197 83.08 96.8797 84.04C96.2663 85 95.9597 86.3467 95.9597 88.08C95.9597 89.84 96.2797 91.2133 96.9197 92.2C97.5863 93.16 98.493 93.64 99.6397 93.64C100.546 93.64 101.266 93.36 101.8 92.8C102.36 92.24 102.733 91.44 102.92 90.4H107.88C107.64 92.8533 106.773 94.76 105.28 96.12C103.813 97.4533 101.906 98.12 99.5597 98.12Z" fill="white"/>
<path d="M120.256 93.64C121.162 93.64 122.042 93.5467 122.896 93.36C123.776 93.1733 124.536 92.9333 125.176 92.64L126.256 96.56C125.056 97.12 123.922 97.52 122.856 97.76C121.816 98 120.749 98.12 119.656 98.12C116.749 98.12 114.416 97.2667 112.656 95.56C110.922 93.8533 110.056 91.3467 110.056 88.04C110.056 85.9067 110.469 84.0933 111.296 82.6C112.149 81.1067 113.282 79.9867 114.696 79.24C116.136 78.4933 117.722 78.12 119.456 78.12C121.722 78.12 123.469 78.68 124.696 79.8C125.949 80.8933 126.576 82.2933 126.576 84C126.576 86.24 125.669 87.88 123.856 88.92C122.042 89.96 119.656 90.48 116.696 90.48C116.162 90.48 115.762 90.4667 115.496 90.44C116.136 92.5733 117.722 93.64 120.256 93.64ZM119.376 82.28C118.256 82.28 117.322 82.68 116.576 83.48C115.856 84.28 115.416 85.36 115.256 86.72C115.576 86.7467 116.029 86.76 116.616 86.76C118.269 86.76 119.509 86.56 120.336 86.16C121.162 85.7333 121.576 85.0667 121.576 84.16C121.576 83.5467 121.376 83.08 120.976 82.76C120.576 82.44 120.042 82.28 119.376 82.28Z" fill="white"/>
</svg>
