<svg width="196" height="72" viewBox="0 0 196 72" fill="none" xmlns="http://www.w3.org/2000/svg">
<path d="M38.3066 32.68C39.3865 30.6947 40 28.419 40 26C40 24.5056 39.7659 23.0659 39.3323 21.7155L35.1236 25.9242C34.137 26.9108 34.137 28.5104 35.1236 29.497L38.3066 32.68Z" fill="white"/>
<path d="M35.0074 36.718C32.5728 38.7662 29.4305 40 26 40C18.268 40 12 33.732 12 26L12 12L26 12C30.3136 12 34.1715 13.9508 36.7397 17.0184C36.6291 17.0977 36.5236 17.187 36.4243 17.2864L32.2523 21.4583C28.7993 24.9114 28.7993 30.5099 32.2523 33.9629L35.0074 36.718Z" fill="white"/>
<path d="M33.6934 52.68C32.6135 50.6947 32 48.419 32 46C32 44.5056 32.2341 43.0659 32.6678 41.7155L36.8765 45.9242C37.8631 46.9108 37.8631 48.5104 36.8765 49.497L33.6934 52.68Z" fill="#F0E224"/>
<path d="M36.9926 56.718C39.4272 58.7662 42.5695 60 46 60C53.732 60 60 53.732 60 46L60 32L46 32C41.6864 32 37.8285 33.9508 35.2604 37.0184C35.3709 37.0977 35.4764 37.187 35.5758 37.2864L39.7477 41.4583C43.2008 44.9114 43.2008 50.5099 39.7477 53.9629L36.9926 56.718Z" fill="#F0E224"/>
<path d="M79.56 48.5599C77.2667 48.5599 75.4667 48.0133 74.16 46.9199C72.8533 45.7999 72.1333 44.2266 72 42.1999H77.12C77.3067 43.6399 78.1333 44.3599 79.6 44.3599C80.32 44.3599 80.8933 44.2133 81.32 43.9199C81.7467 43.5999 81.96 43.1333 81.96 42.5199C81.96 41.9066 81.7067 41.4533 81.2 41.1599C80.72 40.8666 79.9867 40.6266 79 40.4399C77.1867 40.1466 75.6133 39.5333 74.28 38.5999C72.9733 37.6399 72.32 36.2399 72.32 34.3999C72.32 32.5599 72.96 31.1333 74.24 30.1199C75.5467 29.0799 77.32 28.5599 79.56 28.5599C81.72 28.5599 83.4133 29.0799 84.64 30.1199C85.8667 31.1599 86.5333 32.6533 86.64 34.5999H81.92C81.7333 33.3466 80.9733 32.7199 79.64 32.7199C78.9733 32.7199 78.4533 32.8666 78.08 33.1599C77.7067 33.4533 77.52 33.8666 77.52 34.3999C77.52 35.0133 77.7467 35.4666 78.2 35.7599C78.68 36.0266 79.4133 36.2399 80.4 36.3999C82.3733 36.7466 84 37.3599 85.28 38.2399C86.56 39.1199 87.2 40.5333 87.2 42.4799C87.2 44.3733 86.5067 45.8666 85.12 46.9599C83.76 48.0266 81.9067 48.5599 79.56 48.5599Z" fill="white"/>
<path d="M102.708 47.7599C101.241 48.2399 99.8008 48.4799 98.3875 48.4799C96.0142 48.4799 94.2675 47.8533 93.1475 46.5999C92.0542 45.3199 91.5075 43.3866 91.5075 40.7999V33.1999L88.5475 32.8799V28.9199H91.5875L92.1475 23.4399H96.7875V28.9199H101.948V33.2799H96.7875V40.6399C96.7875 41.9199 96.9742 42.7866 97.3475 43.2399C97.7475 43.6933 98.5075 43.9199 99.6275 43.9199C100.401 43.9199 101.161 43.7999 101.908 43.5599L102.708 47.7599Z" fill="white"/>
<path d="M121.942 41.9199C121.942 42.7999 122.075 43.3999 122.342 43.7199C122.609 44.0399 123.115 44.1466 123.862 44.0399V48.1999C123.142 48.3333 122.489 48.3999 121.902 48.3999C120.809 48.3999 119.862 48.1999 119.062 47.7999C118.289 47.3733 117.755 46.6933 117.462 45.7599C116.342 47.6266 114.595 48.5599 112.222 48.5599C109.875 48.5599 108.009 47.6933 106.622 45.9599C105.235 44.1999 104.542 41.8133 104.542 38.7999C104.542 36.5866 104.969 34.7199 105.822 33.1999C106.675 31.6533 107.849 30.4933 109.342 29.7199C110.835 28.9466 112.542 28.5599 114.462 28.5599C116.969 28.5599 119.462 29.0666 121.942 30.0799V41.9199ZM113.302 44.0799C114.395 44.0799 115.222 43.6133 115.782 42.6799C116.369 41.7466 116.662 40.4133 116.662 38.6799V33.3999C115.889 33.1599 115.129 33.0399 114.382 33.0399C112.942 33.0399 111.835 33.5199 111.062 34.4799C110.289 35.4399 109.902 36.8799 109.902 38.7999C109.902 40.4799 110.195 41.7866 110.782 42.7199C111.395 43.6266 112.235 44.0799 113.302 44.0799Z" fill="white"/>
<path d="M144.619 42.2399C144.619 43.0133 144.765 43.5466 145.059 43.8399C145.352 44.1066 145.845 44.1999 146.539 44.1199V48.1999C145.979 48.3066 145.352 48.3599 144.659 48.3599C142.979 48.3599 141.672 47.8933 140.739 46.9599C139.805 45.9999 139.339 44.5866 139.339 42.7199V36.3599C139.339 35.2933 139.112 34.4799 138.659 33.9199C138.205 33.3333 137.552 33.0399 136.699 33.0399C135.792 33.0399 135.059 33.4133 134.499 34.1599C133.965 34.9066 133.699 35.9199 133.699 37.1999V48.1999H128.419V35.0799C128.419 34.2799 128.259 33.7466 127.939 33.4799C127.619 33.2133 127.085 33.1199 126.339 33.1999V28.9199C127.059 28.7599 127.739 28.6799 128.379 28.6799C129.445 28.6799 130.352 28.9066 131.099 29.3599C131.872 29.7866 132.419 30.4266 132.739 31.2799C133.405 30.3466 134.219 29.6666 135.179 29.2399C136.165 28.7866 137.205 28.5599 138.299 28.5599C140.245 28.5599 141.779 29.2133 142.899 30.5199C144.045 31.7999 144.619 33.5866 144.619 35.8799V42.2399Z" fill="white"/>
<path d="M157.56 48.5599C155.773 48.5599 154.213 48.1466 152.88 47.3199C151.546 46.4933 150.52 45.3199 149.8 43.7999C149.08 42.2799 148.72 40.5199 148.72 38.5199C148.72 36.4666 149.08 34.6933 149.8 33.1999C150.546 31.6799 151.586 30.5333 152.92 29.7599C154.28 28.9599 155.84 28.5599 157.6 28.5599C159.893 28.5599 161.76 29.2266 163.2 30.5599C164.64 31.8666 165.493 33.6666 165.76 35.9599H160.92C160.733 35.0533 160.346 34.3466 159.76 33.8399C159.2 33.3066 158.466 33.0399 157.56 33.0399C156.413 33.0399 155.52 33.5199 154.88 34.4799C154.266 35.4399 153.96 36.7866 153.96 38.5199C153.96 40.2799 154.28 41.6533 154.92 42.6399C155.586 43.5999 156.493 44.0799 157.64 44.0799C158.546 44.0799 159.266 43.7999 159.8 43.2399C160.36 42.6799 160.733 41.8799 160.92 40.8399H165.88C165.64 43.2933 164.773 45.1999 163.28 46.5599C161.813 47.8933 159.906 48.5599 157.56 48.5599Z" fill="white"/>
<path d="M178.256 44.0799C179.162 44.0799 180.042 43.9866 180.896 43.7999C181.776 43.6133 182.536 43.3733 183.176 43.0799L184.256 46.9999C183.056 47.5599 181.922 47.9599 180.856 48.1999C179.816 48.4399 178.749 48.5599 177.656 48.5599C174.749 48.5599 172.416 47.7066 170.656 45.9999C168.922 44.2933 168.056 41.7866 168.056 38.4799C168.056 36.3466 168.469 34.5333 169.296 33.0399C170.149 31.5466 171.282 30.4266 172.696 29.6799C174.136 28.9333 175.722 28.5599 177.456 28.5599C179.722 28.5599 181.469 29.1199 182.696 30.2399C183.949 31.3333 184.576 32.7333 184.576 34.4399C184.576 36.6799 183.669 38.3199 181.856 39.3599C180.042 40.3999 177.656 40.9199 174.696 40.9199C174.162 40.9199 173.762 40.9066 173.496 40.8799C174.136 43.0133 175.722 44.0799 178.256 44.0799ZM177.376 32.7199C176.256 32.7199 175.322 33.1199 174.576 33.9199C173.856 34.7199 173.416 35.7999 173.256 37.1599C173.576 37.1866 174.029 37.1999 174.616 37.1999C176.269 37.1999 177.509 36.9999 178.336 36.5999C179.162 36.1733 179.576 35.5066 179.576 34.5999C179.576 33.9866 179.376 33.5199 178.976 33.1999C178.576 32.8799 178.042 32.7199 177.376 32.7199Z" fill="white"/>
</svg>
