<svg width="98" height="36" viewBox="0 0 98 36" fill="none" xmlns="http://www.w3.org/2000/svg">
<path d="M19.1533 16.34C19.6933 15.3474 20 14.2095 20 13C20 12.2528 19.8829 11.5329 19.6661 10.8578L17.5618 12.9621C17.0685 13.4554 17.0685 14.2552 17.5618 14.7485L19.1533 16.34Z" fill="white"/>
<path d="M17.5037 18.359C16.2864 19.3831 14.7153 20 13 20C9.13402 20 6.00001 16.866 6.00001 13L6 6L13 6C15.1568 6 17.0858 6.97542 18.3698 8.50919C18.3146 8.54885 18.2618 8.59352 18.2121 8.64319L16.1262 10.7292C14.3996 12.4557 14.3996 15.2549 16.1262 16.9815L17.5037 18.359Z" fill="white"/>
<path d="M16.8467 26.34C16.3068 25.3474 16 24.2095 16 23C16 22.2528 16.1171 21.5329 16.3339 20.8578L18.4382 22.9621C18.9315 23.4554 18.9315 24.2552 18.4382 24.7485L16.8467 26.34Z" fill="white"/>
<path d="M18.4963 28.359C19.7136 29.3831 21.2847 30 23 30C26.866 30 30 26.866 30 23L30 16L23 16C20.8432 16 18.9143 16.9754 17.6302 18.5092C17.6854 18.5489 17.7382 18.5935 17.7879 18.6432L19.8739 20.7292C21.6004 22.4557 21.6004 25.2549 19.8739 26.9815L18.4963 28.359Z" fill="white"/>
<path d="M39.78 24.2802C38.6333 24.2802 37.7333 24.0069 37.08 23.4602C36.4267 22.9002 36.0667 22.1135 36 21.1002H38.56C38.6533 21.8202 39.0667 22.1802 39.8 22.1802C40.16 22.1802 40.4467 22.1069 40.66 21.9602C40.8733 21.8002 40.98 21.5669 40.98 21.2602C40.98 20.9535 40.8533 20.7269 40.6 20.5802C40.36 20.4335 39.9933 20.3135 39.5 20.2202C38.5933 20.0735 37.8067 19.7669 37.14 19.3002C36.4867 18.8202 36.16 18.1202 36.16 17.2002C36.16 16.2802 36.48 15.5669 37.12 15.0602C37.7733 14.5402 38.66 14.2802 39.78 14.2802C40.86 14.2802 41.7067 14.5402 42.32 15.0602C42.9333 15.5802 43.2667 16.3269 43.32 17.3002H40.96C40.8667 16.6735 40.4867 16.3602 39.82 16.3602C39.4867 16.3602 39.2267 16.4335 39.04 16.5802C38.8533 16.7269 38.76 16.9335 38.76 17.2002C38.76 17.5069 38.8733 17.7335 39.1 17.8802C39.34 18.0135 39.7067 18.1202 40.2 18.2002C41.1867 18.3735 42 18.6802 42.64 19.1202C43.28 19.5602 43.6 20.2669 43.6 21.2402C43.6 22.1869 43.2533 22.9335 42.56 23.4802C41.88 24.0135 40.9533 24.2802 39.78 24.2802Z" fill="white"/>
<path d="M51.3538 23.8802C50.6204 24.1202 49.9004 24.2402 49.1938 24.2402C48.0071 24.2402 47.1338 23.9269 46.5738 23.3002C46.0271 22.6602 45.7537 21.6935 45.7537 20.4002V16.6002L44.2738 16.4402V14.4602H45.7937L46.0738 11.7202H48.3938V14.4602H50.9738V16.6402H48.3938V20.3202C48.3938 20.9602 48.4871 21.3935 48.6737 21.6202C48.8737 21.8469 49.2537 21.9602 49.8138 21.9602C50.2004 21.9602 50.5804 21.9002 50.9538 21.7802L51.3538 23.8802Z" fill="white"/>
<path d="M60.9709 20.9602C60.9709 21.4002 61.0376 21.7002 61.1709 21.8602C61.3043 22.0202 61.5576 22.0735 61.9309 22.0202V24.1002C61.5709 24.1669 61.2443 24.2002 60.9509 24.2002C60.4043 24.2002 59.9309 24.1002 59.5309 23.9002C59.1443 23.6869 58.8776 23.3469 58.7309 22.8802C58.1709 23.8135 57.2976 24.2802 56.1109 24.2802C54.9376 24.2802 54.0043 23.8469 53.3109 22.9802C52.6176 22.1002 52.2709 20.9069 52.2709 19.4002C52.2709 18.2935 52.4843 17.3602 52.9109 16.6002C53.3376 15.8269 53.9243 15.2469 54.6709 14.8602C55.4176 14.4735 56.2709 14.2802 57.2309 14.2802C58.4843 14.2802 59.7309 14.5335 60.9709 15.0402V20.9602ZM56.6509 22.0402C57.1976 22.0402 57.6109 21.8069 57.8909 21.3402C58.1843 20.8735 58.3309 20.2069 58.3309 19.3402V16.7002C57.9443 16.5802 57.5643 16.5202 57.1909 16.5202C56.4709 16.5202 55.9176 16.7602 55.5309 17.2402C55.1443 17.7202 54.9509 18.4402 54.9509 19.4002C54.9509 20.2402 55.0976 20.8935 55.3909 21.3602C55.6976 21.8135 56.1176 22.0402 56.6509 22.0402Z" fill="white"/>
<path d="M72.3094 21.1202C72.3094 21.5069 72.3827 21.7735 72.5294 21.9202C72.676 22.0535 72.9227 22.1002 73.2694 22.0602V24.1002C72.9894 24.1535 72.676 24.1802 72.3294 24.1802C71.4894 24.1802 70.836 23.9469 70.3694 23.4802C69.9027 23.0002 69.6694 22.2935 69.6694 21.3602V18.1802C69.6694 17.6469 69.556 17.2402 69.3294 16.9602C69.1027 16.6669 68.776 16.5202 68.3494 16.5202C67.896 16.5202 67.5294 16.7069 67.2494 17.0802C66.9827 17.4535 66.8494 17.9602 66.8494 18.6002V24.1002H64.2094V17.5402C64.2094 17.1402 64.1294 16.8735 63.9694 16.7402C63.8094 16.6069 63.5427 16.5602 63.1694 16.6002V14.4602C63.5294 14.3802 63.8694 14.3402 64.1894 14.3402C64.7227 14.3402 65.176 14.4535 65.5494 14.6802C65.936 14.8935 66.2094 15.2135 66.3694 15.6402C66.7027 15.1735 67.1094 14.8335 67.5894 14.6202C68.0827 14.3935 68.6027 14.2802 69.1494 14.2802C70.1227 14.2802 70.8894 14.6069 71.4494 15.2602C72.0227 15.9002 72.3094 16.7935 72.3094 17.9402V21.1202Z" fill="white"/>
<path d="M78.7798 24.2802C77.8865 24.2802 77.1065 24.0735 76.4398 23.6602C75.7732 23.2469 75.2598 22.6602 74.8998 21.9002C74.5398 21.1402 74.3598 20.2602 74.3598 19.2602C74.3598 18.2335 74.5398 17.3469 74.8998 16.6002C75.2732 15.8402 75.7932 15.2669 76.4598 14.8802C77.1398 14.4802 77.9198 14.2802 78.7998 14.2802C79.9465 14.2802 80.8798 14.6135 81.5998 15.2802C82.3198 15.9335 82.7465 16.8335 82.8798 17.9802H80.4598C80.3665 17.5269 80.1732 17.1735 79.8798 16.9202C79.5998 16.6535 79.2332 16.5202 78.7798 16.5202C78.2065 16.5202 77.7598 16.7602 77.4398 17.2402C77.1332 17.7202 76.9798 18.3935 76.9798 19.2602C76.9798 20.1402 77.1398 20.8269 77.4598 21.3202C77.7932 21.8002 78.2465 22.0402 78.8198 22.0402C79.2732 22.0402 79.6332 21.9002 79.8998 21.6202C80.1798 21.3402 80.3665 20.9402 80.4598 20.4202H82.9398C82.8198 21.6469 82.3865 22.6002 81.6398 23.2802C80.9065 23.9469 79.9532 24.2802 78.7798 24.2802Z" fill="white"/>
<path d="M89.1278 22.0402C89.5811 22.0402 90.0211 21.9935 90.4478 21.9002C90.8878 21.8069 91.2678 21.6869 91.5878 21.5402L92.1278 23.5002C91.5278 23.7802 90.9611 23.9802 90.4278 24.1002C89.9078 24.2202 89.3745 24.2802 88.8278 24.2802C87.3745 24.2802 86.2078 23.8535 85.3278 23.0002C84.4611 22.1469 84.0278 20.8935 84.0278 19.2402C84.0278 18.1735 84.2345 17.2669 84.6478 16.5202C85.0745 15.7735 85.6411 15.2135 86.3478 14.8402C87.0678 14.4669 87.8611 14.2802 88.7278 14.2802C89.8611 14.2802 90.7345 14.5602 91.3478 15.1202C91.9745 15.6669 92.2878 16.3669 92.2878 17.2202C92.2878 18.3402 91.8345 19.1602 90.9278 19.6802C90.0211 20.2002 88.8278 20.4602 87.3478 20.4602C87.0811 20.4602 86.8811 20.4535 86.7478 20.4402C87.0678 21.5069 87.8611 22.0402 89.1278 22.0402ZM88.6878 16.3602C88.1278 16.3602 87.6611 16.5602 87.2878 16.9602C86.9278 17.3602 86.7078 17.9002 86.6278 18.5802C86.7878 18.5935 87.0145 18.6002 87.3078 18.6002C88.1345 18.6002 88.7545 18.5002 89.1678 18.3002C89.5811 18.0869 89.7878 17.7535 89.7878 17.3002C89.7878 16.9935 89.6878 16.7602 89.4878 16.6002C89.2878 16.4402 89.0211 16.3602 88.6878 16.3602Z" fill="white"/>
</svg>
